<svg width="1440" height="752" viewBox="0 0 1440 752" fill="none" xmlns="http://www.w3.org/2000/svg">
<rect width="1440" height="752" fill="#134944"/>
<path d="M1006.5 621C1062.56 621 1108 577.124 1108 523C1108 468.876 1062.56 425 1006.5 425C950.443 425 905 468.876 905 523C905 577.124 950.443 621 1006.5 621Z" stroke="#2B5B57" stroke-width="13"/>
<path d="M1308 216C1362.68 216 1407 172.124 1407 118C1407 63.8761 1362.68 20 1308 20C1253.32 20 1209 63.8761 1209 118C1209 172.124 1253.32 216 1308 216Z" stroke="#2B5B57" stroke-width="13"/>
<path d="M424.5 496C480.557 496 526 452.124 526 398C526 343.876 480.557 300 424.5 300C368.443 300 323 343.876 323 398C323 452.124 368.443 496 424.5 496Z" stroke="#2B5B57" stroke-width="13"/>
<path d="M673.5 339C729.557 339 775 295.124 775 241C775 186.876 729.557 143 673.5 143C617.443 143 572 186.876 572 241C572 295.124 617.443 339 673.5 339Z" stroke="#2B5B57" stroke-width="13"/>
<path d="M121.5 412C177.557 412 223 368.124 223 314C223 259.876 177.557 216 121.5 216C65.4431 216 20 259.876 20 314C20 368.124 65.4431 412 121.5 412Z" stroke="#2B5B57" stroke-width="13"/>
</svg>
