<svg width="1440" height="481" viewBox="0 0 1440 481" fill="none" xmlns="http://www.w3.org/2000/svg">
<rect width="1440" height="481" fill="#134944"/>
<path d="M172 250C220.601 250 260 210.601 260 162C260 113.399 220.601 74 172 74C123.399 74 84 113.399 84 162C84 210.601 123.399 250 172 250Z" fill="#2B5B57"/>
<path d="M465 426C513.601 426 553 386.601 553 338C553 289.399 513.601 250 465 250C416.399 250 377 289.399 377 338C377 386.601 416.399 426 465 426Z" fill="#2B5B57"/>
<path d="M660 214C708.601 214 748 174.601 748 126C748 77.3989 708.601 38 660 38C611.399 38 572 77.3989 572 126C572 174.601 611.399 214 660 214Z" fill="#2B5B57"/>
<path d="M1293 416C1341.6 416 1381 376.601 1381 328C1381 279.399 1341.6 240 1293 240C1244.4 240 1205 279.399 1205 328C1205 376.601 1244.4 416 1293 416Z" fill="#2B5B57"/>
</svg>
